<?xml version="1.0" standalone="no"?>
<!DOCTYPE svg PUBLIC "-//W3C//DTD SVG 20010904//EN"
 "http://www.w3.org/TR/2001/REC-SVG-20010904/DTD/svg10.dtd">
<svg version="1.0" xmlns="http://www.w3.org/2000/svg"
 width="225.000000pt" height="225.000000pt" viewBox="0 0 225.000000 225.000000"
 preserveAspectRatio="xMidYMid meet">
<metadata>
Created by potrace 1.11, written by Peter Selinger 2001-2013
</metadata>
<g transform="translate(0.000000,225.000000) scale(0.100000,-0.100000)"
fill="#000000" stroke="none">
<path d="M350 2236 c-161 -45 -293 -179 -336 -341 -20 -73 -20 -1467 0 -1540
44 -164 177 -297 341 -341 78 -21 1458 -20 1538 1 168 44 299 173 343 340 11
40 14 200 14 770 0 570 -3 730 -14 770 -44 164 -177 297 -341 341 -70 19
-1477 19 -1545 0z"/>
</g>
</svg>
