<?xml version="1.0" standalone="no"?>
<!DOCTYPE svg PUBLIC "-//W3C//DTD SVG 20010904//EN"
 "http://www.w3.org/TR/2001/REC-SVG-20010904/DTD/svg10.dtd">
<svg version="1.0" xmlns="http://www.w3.org/2000/svg"
 width="700.000000pt" height="700.000000pt" viewBox="0 0 700.000000 700.000000"
 preserveAspectRatio="xMidYMid meet">
<metadata>
Created by potrace 1.11, written by Peter Selinger 2001-2013
</metadata>
<g transform="translate(0.000000,700.000000) scale(0.100000,-0.100000)"
fill="#000000" stroke="none">
<path d="M1599 6996 c-2 -2 -29 -6 -59 -10 -153 -17 -343 -67 -470 -123 -300
-133 -543 -325 -729 -576 -150 -203 -273 -485 -311 -717 -7 -41 -15 -84 -18
-95 -4 -11 -8 -767 -9 -1681 l-4 -1661 148 2 c157 2 243 14 329 46 30 11 55
19 56 17 2 -2 17 7 35 20 17 12 35 22 40 22 6 0 42 22 80 50 175 122 295 294
354 505 l22 80 2 1115 c1 613 5 1142 9 1175 11 91 34 171 81 270 124 266 362
440 670 491 22 4 1194 7 2605 8 l2565 1 3 533 2 532 -2698 0 c-1485 0 -2701
-2 -2703 -4z"/>
<path d="M4415 4764 c-55 -57 -282 -288 -504 -514 -222 -225 -479 -487 -570
-580 -92 -94 -171 -170 -177 -170 -5 0 -27 17 -49 38 -22 21 -71 67 -110 102
-38 35 -117 107 -175 160 -265 243 -306 280 -315 280 -9 0 -147 -139 -542
-548 -111 -114 -110 -109 -53 -158 14 -12 37 -32 51 -45 14 -13 70 -64 124
-114 54 -49 103 -95 109 -100 6 -6 119 -109 251 -230 132 -121 242 -222 245
-225 3 -3 32 -30 65 -60 106 -97 286 -263 354 -327 36 -34 71 -63 77 -63 10 0
150 140 515 511 581 592 1000 1018 1226 1248 l263 266 -53 50 c-29 28 -104 97
-167 155 -63 58 -128 118 -145 133 -16 16 -70 66 -119 110 -49 45 -96 89 -105
98 -9 9 -34 31 -56 51 l-40 34 -100 -102z"/>
<path d="M6645 4849 c-102 -20 -148 -35 -226 -74 -230 -117 -395 -323 -461
-578 -22 -81 -22 -92 -24 -1202 -1 -1099 -3 -1175 -25 -1259 -90 -350 -355
-591 -724 -661 -16 -3 -1190 -6 -2607 -6 l-2578 0 0 -535 0 -534 2692 1 c2811
0 2750 0 2933 40 269 59 544 196 760 379 312 264 534 658 591 1047 3 26 9 57
12 68 4 11 8 766 9 1677 l4 1656 -134 -1 c-81 0 -168 -7 -222 -18z"/>
</g>
</svg>
